<svg xmlns="http://www.w3.org/2000/svg"  viewBox="0 0 50 50" width="50px" height="50px"><path fill="#000000" d="M 4 5 L 4 7 L 45 7 L 45 39 L 19 39 L 19 41 L 46 41 C 46.56503 41 47 41.43497 47 42 L 47 43 L 19 43 L 19 45 L 48 45 A 1.0001 1.0001 0 0 0 49 44 L 49 42 C 49 40.743378 48.106694 39.85942 47 39.416016 L 47 6 A 1.0001 1.0001 0 0 0 46 5 L 4 5 z M 9 11 C 5.1458495 11 2 14.145852 2 18 C 2 21.854148 5.1458495 25 9 25 C 12.854151 25 16 21.854148 16 18 C 16 14.145852 12.854151 11 9 11 z M 20 11 L 20 13 L 21 13 L 31 13 L 32 13 L 32 11 L 31 11 L 21 11 L 20 11 z M 35 11 L 35 13 L 36 13 L 41 13 L 42 13 L 42 11 L 41 11 L 36 11 L 35 11 z M 9 13 C 11.773271 13 14 15.226731 14 18 C 14 20.773269 11.773271 23 9 23 C 6.226729 23 4 20.773269 4 18 C 4 15.226731 6.226729 13 9 13 z M 20 16 L 20 18 L 21 18 L 41 18 L 42 18 L 42 16 L 41 16 L 21 16 L 20 16 z M 28.361328 21.742188 C 28.138457 21.738368 27.916223 21.75635 27.697266 21.794922 C 26.821435 21.949211 26.003733 22.438715 25.462891 23.222656 L 21.603516 28.814453 L 17.972656 27.603516 C 16.773284 27.20336 15.517173 27 14.253906 27 L 7 27 C 3.6983746 27 1 29.698375 1 33 L 1 45 L 3 45 L 3 33 C 3 30.779625 4.7796254 29 7 29 L 14.253906 29 C 15.30264 29 16.345216 29.168155 17.339844 29.5 L 21.683594 30.949219 A 1.0001 1.0001 0 0 0 22.822266 30.568359 L 27.109375 24.357422 C 27.571691 23.687304 28.460786 23.530533 29.123047 24.001953 A 1.0001 1.0001 0 0 0 29.123047 24.003906 C 29.769876 24.463794 29.92454 25.331449 29.474609 25.986328 L 23.802734 34.244141 C 23.556328 34.601136 23.118408 34.759106 22.701172 34.638672 L 16.277344 32.783203 A 1.0001 1.0001 0 0 0 15 33.744141 L 15 45 L 17 45 L 17 35.074219 L 22.146484 36.560547 C 23.384592 36.917923 24.721363 36.438766 25.451172 35.376953 A 1.0001 1.0001 0 0 0 25.453125 35.376953 L 31.123047 27.119141 L 31.123047 27.117188 C 32.177807 25.580185 31.801867 23.452798 30.283203 22.373047 C 29.701301 21.958829 29.029942 21.753645 28.361328 21.742188 z"/></svg>