<svg fill="#000000" xmlns="http://www.w3.org/2000/svg"  viewBox="0 0 50 50" width="50px" height="50px"><path d="M 40.90625 -0.03125 C 40.863281 -0.0234375 40.820313 -0.0117188 40.78125 0 C 40.40625 0.0664063 40.105469 0.339844 40 0.703125 C 39.894531 1.070313 40.003906 1.460938 40.28125 1.71875 L 40.9375 2.375 L 40.375 2.9375 L 39.71875 2.28125 C 39.511719 2.058594 39.210938 1.945313 38.90625 1.96875 C 38.863281 1.976563 38.820313 1.988281 38.78125 2 C 38.40625 2.066406 38.105469 2.339844 38 2.703125 C 37.894531 3.070313 38.003906 3.460938 38.28125 3.71875 L 38.9375 4.375 L 38.125 5.21875 C 37.558594 5.785156 37.390625 6.523438 37.40625 7.25 L 30.28125 14.375 L 30.25 14.375 C 28.515625 13 26.105469 11.59375 23.375 11.59375 C 21.972656 11.59375 20.488281 11.980469 19.09375 12.9375 C 17.5 14.027344 16.820313 15.503906 16.375 16.71875 C 15.929688 17.933594 15.644531 18.851563 15.03125 19.4375 C 14.492188 19.957031 12.816406 20.203125 10.5625 20.6875 C 8.308594 21.171875 5.523438 22.097656 2.9375 24.6875 C 0.296875 27.324219 -0.488281 30.640625 0.28125 33.9375 C 1.046875 37.222656 3.246094 40.515625 6.40625 43.5625 C 6.417969 43.574219 6.425781 43.582031 6.4375 43.59375 C 10.242188 47.539063 14.433594 50 18.5 50 C 20.957031 50 23.328125 49.046875 25.3125 47.0625 C 27.902344 44.472656 28.828125 41.695313 29.3125 39.4375 C 29.796875 37.179688 30.042969 35.507813 30.5625 34.96875 C 31.144531 34.363281 32.089844 34.09375 33.3125 33.65625 C 34.535156 33.21875 36 32.535156 37.09375 30.9375 C 38.640625 28.679688 38.699219 26.226563 38.0625 24.15625 C 37.53125 22.433594 36.550781 20.941406 35.59375 19.75 L 42.75 12.59375 C 43.476563 12.609375 44.214844 12.441406 44.78125 11.875 L 45.625 11.0625 L 46.28125 11.71875 C 46.679688 12.117188 47.320313 12.117188 47.71875 11.71875 C 48.117188 11.320313 48.117188 10.679688 47.71875 10.28125 L 47.0625 9.625 L 47.625 9.0625 L 48.28125 9.71875 C 48.679688 10.117188 49.320313 10.117188 49.71875 9.71875 C 50.117188 9.320313 50.117188 8.679688 49.71875 8.28125 L 49.0625 7.625 L 49.15625 7.5 C 50.265625 6.394531 50.265625 4.574219 49.15625 3.46875 L 46.5625 0.84375 C 46.554688 0.835938 46.539063 0.851563 46.53125 0.84375 C 45.980469 0.304688 45.253906 0 44.53125 0 C 43.796875 0 43.054688 0.289063 42.5 0.84375 L 42.375 0.9375 L 41.71875 0.28125 C 41.511719 0.0585938 41.210938 -0.0546875 40.90625 -0.03125 Z M 44.53125 2 C 44.742188 2 44.957031 2.082031 45.125 2.25 L 47.75 4.875 C 48.089844 5.210938 48.089844 5.722656 47.75 6.0625 L 43.375 10.4375 C 43.160156 10.652344 42.871094 10.734375 42.5625 10.65625 L 42 10.5 L 41.625 10.90625 L 33.78125 18.75 C 33.726563 18.785156 33.671875 18.828125 33.625 18.875 C 33.542969 18.9375 33.46875 19.011719 33.40625 19.09375 C 33.371094 19.144531 33.339844 19.195313 33.3125 19.25 L 26.5625 25.96875 C 26.058594 24.847656 25.152344 23.941406 24.03125 23.4375 L 30.8125 16.65625 C 30.824219 16.644531 30.832031 16.636719 30.84375 16.625 L 30.90625 16.59375 C 31.019531 16.519531 31.113281 16.425781 31.1875 16.3125 C 31.210938 16.28125 31.230469 16.25 31.25 16.21875 L 39.09375 8.40625 L 39.5 8 L 39.34375 7.4375 C 39.265625 7.125 39.347656 6.839844 39.5625 6.625 L 43.9375 2.25 C 44.109375 2.078125 44.320313 2 44.53125 2 Z M 44.40625 3.1875 C 44.265625 3.1875 44.140625 3.234375 44.03125 3.34375 L 40.3125 7.0625 C 40.09375 7.28125 40.09375 7.625 40.3125 7.84375 C 40.421875 7.953125 40.574219 8 40.71875 8 C 40.863281 8 40.984375 7.953125 41.09375 7.84375 L 44.8125 4.125 C 45.03125 3.90625 45.03125 3.5625 44.8125 3.34375 C 44.703125 3.234375 44.546875 3.1875 44.40625 3.1875 Z M 46.25 5.03125 C 46.109375 5.03125 45.984375 5.078125 45.875 5.1875 L 42.15625 8.90625 C 41.9375 9.125 41.9375 9.46875 42.15625 9.6875 C 42.265625 9.796875 42.417969 9.84375 42.5625 9.84375 C 42.707031 9.84375 42.859375 9.796875 42.96875 9.6875 L 46.65625 5.96875 C 46.875 5.75 46.875 5.40625 46.65625 5.1875 C 46.546875 5.078125 46.390625 5.03125 46.25 5.03125 Z M 23.375 13.59375 C 25.320313 13.59375 27.285156 14.679688 28.8125 15.84375 L 21.625 23.03125 C 19.054688 23.230469 17 25.378906 17 28 C 17 30.75 19.25 33 22 33 C 24.621094 33 26.769531 30.945313 26.96875 28.375 L 34.15625 21.1875 C 34.949219 22.222656 35.726563 23.449219 36.125 24.75 C 36.632813 26.402344 36.628906 28.070313 35.4375 29.8125 C 34.652344 30.960938 33.734375 31.386719 32.625 31.78125 C 31.515625 32.175781 30.191406 32.453125 29.125 33.5625 L 29.125 33.59375 C 27.789063 34.984375 27.824219 36.914063 27.375 39 C 26.925781 41.085938 26.164063 43.367188 23.90625 45.625 C 22.246094 47.285156 20.457031 48 18.5 48 C 15.253906 48 11.460938 45.886719 7.875 42.15625 L 7.84375 42.15625 C 4.851563 39.28125 2.890625 36.246094 2.25 33.5 C 1.609375 30.753906 2.167969 28.300781 4.375 26.09375 C 6.632813 23.835938 8.914063 23.074219 11 22.625 C 13.085938 22.175781 15.015625 22.210938 16.40625 20.875 C 17.511719 19.816406 17.84375 18.507813 18.25 17.40625 C 18.65625 16.304688 19.066406 15.382813 20.21875 14.59375 C 21.296875 13.855469 22.34375 13.59375 23.375 13.59375 Z M 22 25 C 23.667969 25 25 26.332031 25 28 C 25 29.667969 23.667969 31 22 31 C 20.332031 31 19 29.667969 19 28 C 19 26.332031 20.332031 25 22 25 Z M 11.15625 31.15625 C 11.011719 31.15625 10.859375 31.203125 10.75 31.3125 L 9.5625 32.5 C 9.339844 32.71875 9.339844 33.089844 9.5625 33.3125 L 16.6875 40.4375 C 16.90625 40.65625 17.28125 40.65625 17.5 40.4375 L 18.6875 39.25 C 18.90625 39.03125 18.90625 38.660156 18.6875 38.4375 L 11.5625 31.3125 C 11.453125 31.203125 11.300781 31.15625 11.15625 31.15625 Z"/></svg>