<svg xmlns="http://www.w3.org/2000/svg"  viewBox="0 0 50 50" width="50px" height="50px"><path fill="#ffffff" d="M 8 0 C 7.207031 0 6.511719 0.453125 6.1875 1.125 C 5.773438 1.214844 5.21875 1.355469 4.65625 1.5625 C 4.09375 1.769531 3.515625 2.042969 3 2.46875 C 2.484375 2.894531 2 3.550781 2 4.375 C 2 4.734375 2.058594 5.148438 2.15625 5.8125 C 2.253906 6.476563 2.394531 7.355469 2.59375 8.34375 C 2.988281 10.320313 3.597656 12.835938 4.40625 15.4375 C 6 20.570313 8.277344 26.074219 12.03125 28.34375 C 12.027344 28.425781 12 28.507813 12 28.59375 C 12 29.789063 12.355469 31.214844 12.96875 32.46875 C 13.273438 33.09375 13.648438 33.652344 14.125 34.125 C 14.378906 34.378906 14.691406 34.621094 15.03125 34.78125 C 15.066406 37.382813 15.316406 40.679688 17.15625 43.53125 C 19.175781 46.664063 23.117188 49 30 49 C 36.265625 49 39.933594 46.410156 41.84375 43.46875 C 43.414063 41.050781 43.859375 38.53125 43.96875 36.9375 C 47.367188 36.464844 50 33.527344 50 30 C 50 26.148438 46.851563 23 43 23 C 39.144531 23 36 26.148438 36 30 C 36 33.492188 38.585938 36.390625 41.9375 36.90625 C 41.816406 38.269531 41.414063 40.433594 40.15625 42.375 C 38.566406 44.824219 35.734375 47 30 47 C 23.550781 47 20.488281 44.984375 18.84375 42.4375 C 17.347656 40.121094 17.074219 37.214844 17.03125 34.75 C 17.34375 34.589844 17.636719 34.359375 17.875 34.125 C 18.347656 33.652344 18.726563 33.09375 19.03125 32.46875 C 19.644531 31.214844 20 29.789063 20 28.59375 C 20 28.507813 19.972656 28.425781 19.96875 28.34375 C 23.722656 26.074219 26 20.570313 27.59375 15.4375 C 28.402344 12.835938 29.011719 10.320313 29.40625 8.34375 C 29.605469 7.355469 29.746094 6.476563 29.84375 5.8125 C 29.941406 5.148438 30 4.734375 30 4.375 C 30 3.550781 29.515625 2.894531 29 2.46875 C 28.484375 2.042969 27.90625 1.769531 27.34375 1.5625 C 26.78125 1.355469 26.226563 1.214844 25.8125 1.125 C 25.792969 1.121094 25.800781 1.128906 25.78125 1.125 C 25.457031 0.460938 24.789063 0 24 0 C 22.894531 0 22 0.894531 22 2 C 22 3.105469 22.894531 4 24 4 C 24.675781 4 25.261719 3.667969 25.625 3.15625 C 25.933594 3.226563 26.292969 3.304688 26.65625 3.4375 C 27.09375 3.597656 27.515625 3.804688 27.75 4 C 27.984375 4.195313 28 4.273438 28 4.375 C 28 4.414063 27.96875 4.90625 27.875 5.53125 C 27.78125 6.15625 27.628906 6.976563 27.4375 7.9375 C 27.054688 9.855469 26.46875 12.328125 25.6875 14.84375 C 24.175781 19.710938 21.777344 24.71875 19.09375 26.5 C 18.863281 26.328125 18.617188 26.191406 18.375 26.125 C 17.503906 25.882813 16.753906 26.03125 16 26.03125 C 15.246094 26.03125 14.496094 25.886719 13.625 26.125 C 13.382813 26.191406 13.136719 26.328125 12.90625 26.5 C 10.222656 24.71875 7.824219 19.710938 6.3125 14.84375 C 5.53125 12.328125 4.945313 9.855469 4.5625 7.9375 C 4.371094 6.976563 4.21875 6.15625 4.125 5.53125 C 4.03125 4.90625 4 4.414063 4 4.375 C 4 4.273438 4.015625 4.195313 4.25 4 C 4.484375 3.804688 4.90625 3.597656 5.34375 3.4375 C 5.707031 3.304688 6.066406 3.226563 6.375 3.15625 C 6.738281 3.667969 7.324219 4 8 4 C 9.105469 4 10 3.105469 10 2 C 10 0.894531 9.105469 0 8 0 Z M 43 25 C 45.769531 25 48 27.230469 48 30 C 48 32.738281 45.820313 34.949219 43.09375 35 C 43.0625 35 43.03125 35 43 35 C 40.226563 35 38 32.769531 38 30 C 38 27.230469 40.226563 25 43 25 Z M 43 27 C 41.355469 27 40 28.355469 40 30 C 40 31.644531 41.355469 33 43 33 C 44.644531 33 46 31.644531 46 30 C 46 28.355469 44.644531 27 43 27 Z M 14.8125 28.03125 C 15.132813 28.03125 15.550781 28.03125 16 28.03125 C 16.902344 28.03125 17.628906 28.003906 17.84375 28.0625 C 17.953125 28.09375 17.929688 28.050781 17.9375 28.0625 C 17.945313 28.074219 18 28.226563 18 28.59375 C 18 29.324219 17.691406 30.625 17.21875 31.59375 C 16.980469 32.078125 16.710938 32.476563 16.46875 32.71875 C 16.277344 32.910156 16.144531 32.949219 16.0625 32.96875 C 16.019531 32.964844 15.980469 32.964844 15.9375 32.96875 C 15.855469 32.949219 15.722656 32.910156 15.53125 32.71875 C 15.289063 32.476563 15.019531 32.078125 14.78125 31.59375 C 14.308594 30.625 14 29.324219 14 28.59375 C 14 28.226563 14.054688 28.074219 14.0625 28.0625 C 14.070313 28.050781 14.046875 28.09375 14.15625 28.0625 C 14.265625 28.03125 14.492188 28.03125 14.8125 28.03125 Z M 43 29 C 43.566406 29 44 29.433594 44 30 C 44 30.566406 43.566406 31 43 31 C 42.433594 31 42 30.566406 42 30 C 42 29.433594 42.433594 29 43 29 Z"/></svg>