<svg xmlns="http://www.w3.org/2000/svg"  viewBox="0 0 50 50" width="50px" height="50px"><path fill="#ffffff" d="M 37.5 4 C 34.472656 4 32 6.472656 32 9.5 C 32 12.527344 34.472656 15 37.5 15 C 40.527344 15 43 12.527344 43 9.5 C 43 6.472656 40.527344 4 37.5 4 Z M 37.5 6 C 39.445313 6 41 7.554688 41 9.5 C 41 11.445313 39.445313 13 37.5 13 C 35.554688 13 34 11.445313 34 9.5 C 34 7.554688 35.554688 6 37.5 6 Z M 28.96875 12.90625 C 28.78125 12.914063 28.59375 12.933594 28.40625 12.96875 C 27.910156 13.058594 27.414063 13.265625 26.96875 13.5625 L 18.53125 19.1875 C 18.039063 19.515625 17.625 19.917969 17.28125 20.375 L 13.46875 21.75 L 10.46875 15.875 C 9.832031 14.628906 8.507813 13.914063 7.1875 14 C 6.746094 14.027344 6.292969 14.164063 5.875 14.375 C 4.203125 15.214844 3.539063 17.265625 4.375 18.9375 L 8.875 28 C 9.484375 29.21875 10.855469 29.847656 12.1875 29.5625 L 16.65625 28.625 L 17.09375 33.4375 L 11.03125 39.34375 C 9.726563 40.617188 9.699219 42.753906 10.96875 44.0625 C 12.222656 45.355469 14.308594 45.386719 15.625 44.15625 L 17 42.84375 C 16.996094 42.898438 17 42.945313 17 43 L 17 45 C 17 45.550781 17.449219 46 18 46 L 26 46 C 26.550781 46 27 45.550781 27 45 L 27 43 C 27 41.355469 25.644531 40 24 40 L 20.0625 40 L 23.125 37.15625 C 23.730469 36.589844 24.09375 35.800781 24.09375 34.96875 L 24.09375 27.40625 L 29.15625 23.65625 L 31.15625 28.84375 C 31.253906 29.09375 31.402344 29.304688 31.59375 29.5 L 36.65625 34.875 C 37.824219 36.074219 39.738281 36.1875 41.03125 35.125 C 42.410156 33.992188 42.582031 31.921875 41.46875 30.5625 C 42.65625 30.671875 43.875 30.117188 44.53125 29.03125 C 45.453125 27.507813 44.933594 25.496094 43.40625 24.59375 C 43.398438 24.589844 43.414063 24.566406 43.40625 24.5625 L 43.375 24.5625 L 37.625 21.09375 L 33.34375 16.3125 L 32.3125 14.6875 C 31.5625 13.5 30.277344 12.863281 28.96875 12.90625 Z M 29.125 14.90625 C 29.246094 14.90625 29.351563 14.914063 29.46875 14.9375 C 29.929688 15.035156 30.347656 15.308594 30.625 15.75 L 31.71875 17.5 L 31.75 17.53125 L 32.96875 19.46875 L 33 19.53125 L 34.96875 26.1875 C 35.058594 26.492188 35.222656 26.773438 35.4375 27 L 39.84375 31.75 L 39.875 31.75 C 40.382813 32.28125 40.316406 33.09375 39.75 33.5625 C 39.246094 33.976563 38.546875 33.933594 38.09375 33.46875 L 33.03125 28.125 L 30.5625 21.71875 L 30.09375 20.46875 L 29.03125 21.25 L 22.5 26.125 L 22.09375 26.40625 L 22.09375 34.96875 C 22.09375 35.246094 21.984375 35.5 21.78125 35.6875 L 14.25 42.71875 C 13.714844 43.21875 12.917969 43.183594 12.40625 42.65625 C 11.886719 42.121094 11.875 41.300781 12.40625 40.78125 L 18.8125 34.53125 L 19.15625 34.21875 L 19.125 33.75 L 18.25 23.78125 C 18.148438 22.613281 18.679688 21.496094 19.65625 20.84375 L 28.0625 15.21875 C 28.386719 15 28.765625 14.902344 29.125 14.90625 Z M 7.3125 16 C 7.863281 15.960938 8.417969 16.253906 8.6875 16.78125 L 12.09375 23.4375 L 12.46875 24.21875 L 13.3125 23.9375 L 16.28125 22.875 C 16.238281 23.230469 16.21875 23.601563 16.25 23.96875 L 16.5 26.59375 L 11.78125 27.625 C 11.332031 27.722656 10.894531 27.507813 10.6875 27.09375 L 6.15625 18.03125 C 5.800781 17.324219 6.074219 16.511719 6.78125 16.15625 C 6.957031 16.066406 7.128906 16.011719 7.3125 16 Z M 35.84375 22.125 L 36.21875 22.5625 L 36.46875 22.75 L 42.375 26.28125 C 42.980469 26.628906 43.171875 27.402344 42.8125 28 C 42.457031 28.585938 41.742188 28.761719 41.15625 28.40625 L 37.03125 25.78125 L 36.90625 25.625 L 36.875 25.625 Z M 20 42 L 24 42 C 24.566406 42 25 42.433594 25 43 L 25 44 L 19 44 L 19 43 C 19 42.433594 19.433594 42 20 42 Z"/></svg>