<svg xmlns="http://www.w3.org/2000/svg"  viewBox="0 0 50 50" width="50px" height="50px"><path fill="#ffffff" d="M 12 0 C 8.699219 0 6 2.699219 6 6 C 6 9.300781 8.699219 12 12 12 C 15.300781 12 18 9.300781 18 6 C 18 2.699219 15.300781 0 12 0 Z M 12 2 C 14.222656 2 16 3.777344 16 6 C 16 8.222656 14.222656 10 12 10 C 9.777344 10 8 8.222656 8 6 C 8 3.777344 9.777344 2 12 2 Z M 9.09375 13 C 7.5625 13 6.402344 13.675781 5.65625 14.46875 C 4.910156 15.261719 4.523438 16.144531 4.34375 16.6875 C 4.34375 16.6875 1.253906 26.136719 0.34375 28.96875 C 0.339844 28.976563 0.347656 28.992188 0.34375 29 C 0.015625 29.941406 0.109375 30.945313 0.59375 31.71875 C 1.082031 32.5 1.992188 33 3 33 L 2.5625 34.28125 C 2.550781 34.300781 2.539063 34.324219 2.53125 34.34375 C 2.402344 34.859375 2.410156 35.601563 2.78125 36.15625 C 2.816406 36.210938 2.859375 36.265625 2.90625 36.3125 C 3.222656 36.628906 3.660156 37 4.40625 37 L 7 37 L 7 47 C 7 48.644531 8.355469 50 10 50 C 10.765625 50 11.46875 49.699219 12 49.21875 C 12.53125 49.699219 13.234375 50 14 50 C 15.644531 50 17 48.644531 17 47 L 17 37 L 19.59375 37 C 20.339844 37 20.777344 36.628906 21.09375 36.3125 C 21.140625 36.265625 21.183594 36.210938 21.21875 36.15625 C 21.589844 35.601563 21.597656 34.859375 21.46875 34.34375 C 21.460938 34.324219 21.449219 34.300781 21.4375 34.28125 L 21 33 C 22.007813 33 22.917969 32.5 23.40625 31.71875 C 23.890625 30.945313 23.984375 29.941406 23.65625 29 C 23.652344 28.992188 23.660156 28.976563 23.65625 28.96875 C 22.746094 26.136719 19.65625 16.6875 19.65625 16.6875 C 19.476563 16.144531 19.089844 15.261719 18.34375 14.46875 C 17.597656 13.675781 16.4375 13 14.90625 13 Z M 9.09375 15 L 14.90625 15 C 15.875 15 16.449219 15.359375 16.90625 15.84375 C 17.363281 16.328125 17.632813 16.957031 17.75 17.3125 C 17.75 17.3125 20.851563 26.804688 21.75 29.59375 C 21.75 29.605469 21.75 29.613281 21.75 29.625 C 21.910156 30.074219 21.855469 30.4375 21.71875 30.65625 C 21.582031 30.875 21.390625 31 21 31 C 20.617188 31 20.292969 30.792969 20.125 30.34375 C 20.117188 30.3125 20.105469 30.28125 20.09375 30.25 L 17.25 21.6875 C 17.097656 21.179688 16.578125 20.878906 16.0625 21 C 15.785156 21.0625 15.546875 21.242188 15.40625 21.496094 C 15.269531 21.746094 15.246094 22.042969 15.34375 22.3125 L 18.1875 30.8125 L 18.1875 30.84375 C 18.199219 30.917969 18.222656 30.992188 18.25 31.0625 C 18.265625 31.105469 18.292969 31.144531 18.3125 31.1875 L 19.53125 34.84375 C 19.589844 35.082031 19.578125 34.996094 19.5625 35 L 4.4375 35 C 4.421875 34.996094 4.410156 35.082031 4.46875 34.84375 L 5.75 31.0625 C 5.785156 30.972656 5.804688 30.878906 5.8125 30.78125 L 8.65625 22.3125 C 8.777344 21.96875 8.703125 21.589844 8.464844 21.316406 C 8.222656 21.042969 7.855469 20.921875 7.5 21 C 7.144531 21.074219 6.855469 21.339844 6.75 21.6875 L 3.875 30.34375 C 3.707031 30.792969 3.382813 31 3 31 C 2.609375 31 2.417969 30.875 2.28125 30.65625 C 2.144531 30.4375 2.089844 30.074219 2.25 29.625 C 2.25 29.613281 2.25 29.605469 2.25 29.59375 C 3.148438 26.804688 6.25 17.3125 6.25 17.3125 C 6.367188 16.957031 6.636719 16.328125 7.09375 15.84375 C 7.550781 15.359375 8.125 15 9.09375 15 Z M 39.34375 19 C 39.015625 19.050781 38.734375 19.261719 38.59375 19.5625 L 33.375 30 L 25 30 C 24.96875 30 24.9375 30 24.90625 30 C 24.875 30 24.84375 30 24.8125 30 C 24.335938 30.089844 23.992188 30.511719 24 31 C 24 34.855469 25.980469 38.25 29 40.4375 C 27.242188 41.214844 26 42.964844 26 45 C 26 47.75 28.25 50 31 50 C 33.75 50 36 47.75 36 45 C 36 44.253906 35.828125 43.546875 35.53125 42.90625 C 36.015625 42.957031 36.503906 43 37 43 C 37.875 43 38.730469 42.90625 39.5625 42.75 C 39.214844 43.429688 39 44.1875 39 45 C 39 47.75 41.25 50 44 50 C 46.75 50 49 47.75 49 45 C 49 42.707031 47.425781 40.769531 45.3125 40.1875 C 48.078125 38.054688 49.875 34.882813 49.96875 31.28125 C 49.980469 31.261719 49.992188 31.238281 50 31.21875 C 50 31.144531 50 31.074219 50 31 C 50.003906 30.957031 50.003906 30.917969 50 30.875 C 49.9375 25.21875 45.578125 20.515625 39.75 19.03125 C 39.617188 18.992188 39.480469 18.984375 39.34375 19 Z M 40 21.28125 C 44.332031 22.667969 47.355469 26.003906 47.8125 30 L 35.625 30 Z M 26.21875 32 L 47.78125 32 C 47.207031 37.019531 42.710938 41 37 41 C 31.289063 41 26.792969 37.019531 26.21875 32 Z M 9 37 L 11 37 L 11 47 C 11 47.554688 10.554688 48 10 48 C 9.445313 48 9 47.554688 9 47 Z M 13 37 L 15 37 L 15 47 C 15 47.554688 14.554688 48 14 48 C 13.445313 48 13 47.554688 13 47 Z M 31 42 C 32.667969 42 34 43.332031 34 45 C 34 46.667969 32.667969 48 31 48 C 29.332031 48 28 46.667969 28 45 C 28 43.332031 29.332031 42 31 42 Z M 44 42 C 45.667969 42 47 43.332031 47 45 C 47 46.667969 45.667969 48 44 48 C 42.332031 48 41 46.667969 41 45 C 41 43.332031 42.332031 42 44 42 Z"/></svg>