<svg id="Calque_1" data-name="Calque 1" xmlns="http://www.w3.org/2000/svg" xmlns:xlink="http://www.w3.org/1999/xlink" viewBox="0 0 209.21 227.09"><defs><style>.cls-1{fill:url(#Dégradé_sans_nom);}</style><linearGradient id="Dégradé_sans_nom" x1="460.76" y1="-40.41" x2="460.76" y2="-39.41" gradientTransform="translate(-95439.53 9603.15) scale(209.22 227.09)" gradientUnits="userSpaceOnUse"><stop offset="0" stop-color="#500f3c"/><stop offset="1" stop-color="#dd1e45"/></linearGradient></defs><title>hexagone_middle_social</title><path id="Tracé_560-2" data-name="Tracé 560-2" class="cls-1" d="M1041.55,613.17,978.13,648a41.18,41.18,0,0,1-41.17-.86l-61.91-37.5a41.19,41.19,0,0,1-19.84-36.09l1.52-72.36A41.17,41.17,0,0,1,878.06,466l63.42-34.87a41.18,41.18,0,0,1,41.17.86l61.91,37.49a41.18,41.18,0,0,1,19.84,36.08l-1.52,72.36A41.2,41.2,0,0,1,1041.55,613.17Z" transform="translate(-855.2 -426.04)"/></svg>