<svg xmlns="http://www.w3.org/2000/svg" xmlns:xlink="http://www.w3.org/1999/xlink" viewBox="0 0 64 64"><defs><style>.cls-1{fill:url(#Dégradé_sans_nom_2);}</style><linearGradient id="Dégradé_sans_nom_2" x1="-923.15" y1="-502.42" x2="-923.15" y2="-501.42" gradientTransform="translate(59113.87 32154.34) scale(64)" gradientUnits="userSpaceOnUse"><stop offset="0" stop-color="#500f3c"/><stop offset="1" stop-color="#dd1e45"/></linearGradient></defs><g id="Calque_2" data-name="Calque 2"><g id="Calque_1-2" data-name="Calque 1"><g id="Calque_2-2" data-name="Calque 2"><path id="icons8-cookie" class="cls-1" d="M32,0A32,32,0,1,0,64,32c0-.94-.06-1.85-.14-2.73a1.53,1.53,0,0,0-1.65-1.4h0a1.57,1.57,0,0,0-.69.23,5.28,5.28,0,0,1-7.3-1.53,4.76,4.76,0,0,1-.5-1,1.53,1.53,0,0,0-2-.85h0l-.15.07A9.14,9.14,0,0,1,39.18,12.43a1.53,1.53,0,0,0-.62-2.07l-.16-.08A5.29,5.29,0,0,1,35,5.34a5.18,5.18,0,0,1,.85-2.86A1.54,1.54,0,0,0,35.42.37a1.57,1.57,0,0,0-.69-.23C33.85.06,32.94,0,32,0ZM51.81,0a3.05,3.05,0,1,0,3,3.1V3.05a3,3,0,0,0-3-3ZM32,3.05h.66A7.67,7.67,0,0,0,32,5.3a8.11,8.11,0,0,0,4,6.8A12,12,0,0,0,51.87,28a8.11,8.11,0,0,0,6.79,4,7.44,7.44,0,0,0,2.26-.66v.66A29,29,0,1,1,32,3.1h0Zm17.52,9.14a2.29,2.29,0,1,0,2.29,2.29h0A2.31,2.31,0,0,0,49.52,12.19ZM26.66,16.77A2.29,2.29,0,1,0,29,19.06h0a2.28,2.28,0,0,0-2.28-2.28Zm35.81,0A1.52,1.52,0,1,0,64,18.29h0A1.53,1.53,0,0,0,62.47,16.77ZM16.76,24.39a4.56,4.56,0,1,0,.1,0Zm14.48,6.1a2.29,2.29,0,1,0,2.28,2.3v0h0a2.29,2.29,0,0,0-2.28-2.29h0ZM19.81,41.15a3,3,0,1,0,.05,0Zm20.57,1.52a3.81,3.81,0,1,0,3.81,3.81,3.82,3.82,0,0,0-3.81-3.81h0Z"/></g></g></g></svg>